# xmcd CD database file
#
# Track frame offsets:
#	150
#	33548
#	82265
#	124234
#	145332
#	161384
#	165469
#	181436
#	194539
#	210575
#	218573
#	226346
#
# Disc length: 3696 seconds
#
# Revision: 0
# Processed by: cddbd v1.5.2PL0 Copyright (c) Steve Scherf et al.
# Submitted via: CDex 1.51
#
DISCID=a90e6e0c
DTITLE=Orquestra Jazz de Matosinhos - Lee Konitz - Ohad Talmor - Portology
DYEAR=2006
DGENRE=Jazz
TTITLE0=Sound Lee
TTITLE1=June '05
TTITLE2=A Ballad
TTITLE3=Medley - Ornetty
TTITLE4=Medley - September 11th
TTITLE5=Medley - Ornetty (part 2)
TTITLE6=Rhythm Sweet - 1 - Dante
TTITLE7=Rhythm Sweet - 2 - To be or not To
TTITLE8=Rhythm Sweet - 3 - Fragmente
TTITLE9=Rhythm Sweet - 4 - Tempo di Lee
TTITLE10=Rhythm Sweet - 5 - Moderato
TTITLE11=Relative Major
EXTD=YEAR: 2006
EXTT0=
EXTT1=
EXTT2=
EXTT3=
EXTT4=
EXTT5=
EXTT6=
EXTT7=
EXTT8=
EXTT9=
EXTT10=
EXTT11=
PLAYORDER=
